<svg xmlns="http://www.w3.org/2000/svg" viewBox="0 0 512 512">
  <!-- Spottr — full bumper-plate stack with rainbow whiskers. Same mega
       geometry as icon.svg, but each whisker pair takes one of the four
       plate hues so the color theme repeats at both ends of the otter. -->
  <rect width="512" height="512" rx="96" fill="#0E0E10"/>

  <!-- Head -->
  <circle cx="256" cy="216" r="124" fill="#3DDC84"/>

  <!-- Ears (outer + inner) -->
  <circle cx="168" cy="138" r="34" fill="#3DDC84"/>
  <circle cx="344" cy="138" r="34" fill="#3DDC84"/>
  <circle cx="168" cy="138" r="14" fill="#0E0E10"/>
  <circle cx="344" cy="138" r="14" fill="#0E0E10"/>

  <!-- Eyes -->
  <circle cx="212" cy="208" r="15" fill="#0E0E10"/>
  <circle cx="300" cy="208" r="15" fill="#0E0E10"/>
  <circle cx="216" cy="204" r="4" fill="#3DDC84"/>
  <circle cx="304" cy="204" r="4" fill="#3DDC84"/>

  <!-- Nose -->
  <path d="M 244 252 L 268 252 L 256 268 Z" fill="#0E0E10"/>

  <!-- Mouth -->
  <path d="M 256 268 L 256 282 M 232 288 Q 256 304 280 288"
        stroke="#0E0E10" stroke-width="5" fill="none"
        stroke-linecap="round" stroke-linejoin="round"/>

  <!-- Whiskers — one plate color per line -->
  <g stroke-width="4" stroke-linecap="round" fill="none">
    <line x1="152" y1="260" x2="206" y2="266" stroke="#EF4444"/>
    <line x1="152" y1="282" x2="206" y2="280" stroke="#3B82F6"/>
    <line x1="306" y1="266" x2="360" y2="260" stroke="#F5C518"/>
    <line x1="306" y1="280" x2="360" y2="282" stroke="#3DDC84"/>
  </g>

  <!-- Paws -->
  <circle cx="208" cy="372" r="28" fill="#3DDC84"/>
  <circle cx="304" cy="372" r="28" fill="#3DDC84"/>

  <!-- Barbell -->
  <rect x="70" y="368" width="372" height="8" rx="4" fill="#A8A8B0"/>

  <!-- Left plates: green (10) → yellow (15) → blue (20) → red (25) -->
  <rect x="44" y="342" width="12" height="60" rx="2" fill="#3DDC84"/>
  <rect x="56" y="330" width="16" height="84" rx="3" fill="#F5C518"/>
  <rect x="72" y="316" width="20" height="112" rx="4" fill="#3B82F6"/>
  <rect x="92" y="302" width="26" height="140" rx="5" fill="#EF4444"/>

  <!-- Right plates: mirror -->
  <rect x="394" y="302" width="26" height="140" rx="5" fill="#EF4444"/>
  <rect x="420" y="316" width="20" height="112" rx="4" fill="#3B82F6"/>
  <rect x="440" y="330" width="16" height="84" rx="3" fill="#F5C518"/>
  <rect x="456" y="342" width="12" height="60" rx="2" fill="#3DDC84"/>
</svg>
